<?xml version="1.0" standalone="no"?> <!DOCTYPE svg PUBLIC "-//W3C//DTD SVG 1.0//EN" "http://www.w3.org/TR/2001/REC-SVG-20010904/DTD/svg10.dtd" > <svg xmlns="http://www.w3.org/2000/svg" width="100%" height="100%">
<defs >
<font id="zurchke" horiz-adv-x="1238" ><font-face
    font-family="Zurich BlkEx BT"
    units-per-em="2048"
    panose-1="2 11 8 7 4 5 2 3 2 4"
    ascent="1937"
    descent="-483"
    alphabetic="0" />
<missing-glyph horiz-adv-x="1229" d="M102 -362V1444H1126V-362H102ZM217 -248H1012V1329H217V-248Z" />
<glyph unicode=" " glyph-name="space" horiz-adv-x="778" />
<glyph unicode="!" glyph-name="exclam" horiz-adv-x="825" d="M569 420H254L190 1475H633L569 420ZM221 0V317H604V0H221Z" />
<glyph unicode="&quot;" glyph-name="quotedbl" horiz-adv-x="713" d="M416 1438H639V877H416V1438ZM76 1438H295V877H76V1438Z" />
<glyph unicode="#" glyph-name="numbersign" horiz-adv-x="1575" d="M707 842L625 610H870L952 842H707ZM684 1466H934L795 1073H1030L1171 1466H1421L1282 1073H1552L1466 842H1198L1118 612H1395L1311 381H1036L895 -12H645L784 381H549L408 -12H158L297 381H23L109
612H379L461 842H178L264 1073H543L684 1466Z" />
<glyph unicode="$" glyph-name="dollar" horiz-adv-x="1554" d="M854 228Q973 231 1035 271T1098 385Q1098 459 1044 499T854 563V228ZM688 1208Q582 1207 526 1168T469 1057Q469 989 518 951T688 887V1208ZM51 450L446 451Q456 340 513 287T688 227V586Q353 642
226 738T98 1018Q98 1218 246 1321T688 1428V1587H854V1427Q1156 1421 1306 1322T1466 1022H1085Q1079 1111 1024 1155T854 1208V866Q1202 813 1345 710T1489 414Q1489 210 1334 109T854 0V-176H688V0Q374 5 215 117T51 450Z" />
<glyph unicode="%" glyph-name="percent" horiz-adv-x="2009" d="M1391 383Q1391 266 1426 217T1546 168Q1629 168 1664 217T1700 383Q1700 499 1664 549T1546 600Q1463 600 1427 550T1391 383ZM1151 383Q1151 572 1251 669T1546 766Q1741 766 1842 669T1944 383Q1944
196 1842 98T1546 0Q1352 0 1252 97T1151 383ZM307 1044Q307 927 343 877T463 827Q545 827 580 877T616 1044Q616 1161 580 1211T463 1262Q380 1262 344 1212T307 1044ZM66 1044Q66 1233 167 1330T463 1427Q658 1427 759 1330T860 1044Q860 857 758 758T463 659Q269
659 168 757T66 1044ZM588 -25H354L1425 1450H1659L588 -25Z" />
<glyph unicode="&amp;" glyph-name="ampersand" horiz-adv-x="2091" d="M1661 0H885Q682 0 582 12T401 53Q280 96 211 194T141 422Q141 559 227 646T489 776Q334 839 269 915T203 1108Q203 1307 343 1403T776 1499Q838 1499 915 1495T1122 1481V1231Q1029 1240
969 1243T868 1247Q730 1247 664 1205T598 1075Q598 986 674 952T993 918H1272V1159H1661V918H1987V643H1661V0ZM1272 289V666H981Q722 666 638 625T553 477Q553 375 647 332T981 289H1272Z" />
<glyph unicode="&apos;" glyph-name="quotesingle" horiz-adv-x="371" d="M76 1438H295V877H76V1438Z" />
<glyph unicode="(" glyph-name="parenleft" horiz-adv-x="829" d="M768 -289H465Q303 -46 223 175T143 600Q143 813 220 1029T465 1497H768Q632 1224 566 1004T500 600Q500 426 567 204T768 -289Z" />
<glyph unicode=")" glyph-name="parenright" horiz-adv-x="829" d="M63 -289Q198 -19 265 203T332 600Q332 783 266 1003T63 1497H367Q534 1246 611 1030T688 600Q688 396 609 175T367 -289H63Z" />
<glyph unicode="*" glyph-name="asterisk" horiz-adv-x="1255" d="M723 1497L922 1362L692 1151L993 1229V995L692 1073L922 870L723 729L629 1036L532 727L340 862L563 1073L262 995V1229L563 1151L338 1364L530 1497L629 1198L723 1497Z" />
<glyph unicode="+" glyph-name="plus" horiz-adv-x="1706" d="M735 1221H973V727H1452V496H973V0H735V496H254V727H735V1221Z" />
<glyph unicode="," glyph-name="comma" horiz-adv-x="778" d="M86 -231L242 295H637L358 -231H86Z" />
<glyph unicode="-" glyph-name="hyphen" horiz-adv-x="909" d="M80 338V690H829V338H80Z" />
<glyph unicode="." glyph-name="period" horiz-adv-x="778" d="M186 0V322H590V0H186Z" />
<glyph unicode="/" glyph-name="slash" horiz-adv-x="834" d="M608 1497H846L188 -190H-53L608 1497Z" />
<glyph unicode="0" glyph-name="zero" horiz-adv-x="1554" d="M510 713Q510 445 572 331T776 217Q919 217 981 332T1044 713Q1044 977 982 1092T776 1208Q634 1208 572 1094T510 713ZM80 713Q80 1075 257 1262T776 1450Q1118 1450 1296 1262T1475 713Q1475 352
1297 164T776 -25Q435 -25 258 163T80 713Z" />
<glyph unicode="1" glyph-name="one" horiz-adv-x="1554" d="M1098 0H688V1036Q607 984 503 942T268 866V1200Q405 1251 521 1307T737 1427H1098V0Z" />
<glyph unicode="2" glyph-name="two" horiz-adv-x="1554" d="M1415 0H84V303Q262 393 425 489T737 690Q881 790 928 854T975 999Q975 1087 920 1131T758 1176Q654 1176 601 1125T545 971H123Q123 1207 282 1328T752 1450Q1063 1450 1237 1331T1411 1001Q1411 808
1239 643T643 274H1415V0Z" />
<glyph unicode="3" glyph-name="three" horiz-adv-x="1554" d="M639 602V860H664Q819 860 891 899T963 1024Q963 1106 912 1149T764 1192Q665 1192 608 1152T541 1039L115 1038Q132 1238 294 1344T748 1450Q1061 1450 1227 1346T1393 1042Q1393 915 1306 837T1055
737Q1237 718 1335 628T1434 391Q1434 182 1262 79T741 -25Q408 -25 241 86T66 424H497Q499 331 562 282T748 233Q866 233 930 282T995 422Q995 518 931 562T723 606Q700 606 646 603L639 602Z" />
<glyph unicode="4" glyph-name="four" horiz-adv-x="1554" d="M1253 0H856V299H45V639L758 1427H1253V567H1520V299H1253V0ZM856 567V1106Q746 961 626 827T375 567H856Z" />
<glyph unicode="5" glyph-name="five" horiz-adv-x="1554" d="M551 567H147L190 1427H1329V1151H555L528 809Q604 876 696 907T913 938Q1170 938 1313 815T1456 469Q1456 229 1280 102T768 -25Q435 -25 276 80T115 405L524 406Q532 328 594 285T762 242Q886 242
952 300T1018 467Q1018 571 955 631T782 692Q692 692 637 663T551 567Z" />
<glyph unicode="6" glyph-name="six" horiz-adv-x="1554" d="M1446 1067H1010Q997 1134 944 1168T797 1202Q659 1202 586 1120T512 883Q512 862 512 852T514 834Q607 892 711 921T928 950Q1188 950 1341 822T1495 477Q1495 240 1311 108T795 -25Q453 -25 267 164T80
698Q80 1076 269 1264T838 1452Q1112 1452 1265 1355T1446 1067ZM530 467Q530 365 599 308T791 250Q913 250 980 305T1047 461Q1047 566 980 627T795 688Q674 688 602 628T530 467Z" />
<glyph unicode="7" glyph-name="seven" horiz-adv-x="1554" d="M754 0H262L979 1139H119V1427H1413V1100L754 0Z" />
<glyph unicode="8" glyph-name="eight" horiz-adv-x="1554" d="M442 741Q283 772 200 851T117 1051Q117 1239 291 1344T778 1450Q1090 1450 1263 1345T1436 1051Q1436 930 1353 851T1112 741Q1287 714 1383 625T1479 401Q1479 197 1297 86T776 -25Q439 -25 257
86T74 401Q74 536 170 625T442 741ZM532 1018Q532 938 592 899T776 860Q900 860 961 899T1022 1018Q1022 1103 958 1149T778 1196Q663 1196 598 1149T532 1018ZM496 424Q496 332 568 284T776 236Q915 236 987 283T1059 424Q1059 514 984 565T776 616Q643 616 570
566T496 424Z" />
<glyph unicode="9" glyph-name="nine" horiz-adv-x="1554" d="M109 360H545Q557 293 610 259T758 225Q896 225 970 307T1044 545Q1044 563 1044 573T1042 592Q950 534 845 505T627 475Q366 475 213 603T59 948Q59 1185 244 1317T760 1450Q1102 1450 1288 1262T1475
729Q1475 351 1287 163T719 -25Q444 -25 290 72T109 360ZM1024 958Q1024 1061 955 1119T764 1178Q642 1178 575 1122T508 965Q508 860 575 800T760 739Q881 739 952 798T1024 958Z" />
<glyph unicode=":" glyph-name="colon" horiz-adv-x="825" d="M211 707V1028H614V707H211ZM211 0V322H614V0H211Z" />
<glyph unicode=";" glyph-name="semicolon" horiz-adv-x="825" d="M104 -233L260 293H653L377 -233H104ZM211 707V1028H614V707H211Z" />
<glyph unicode="&lt;" glyph-name="less" horiz-adv-x="1706" d="M1442 1214V961L588 610L1442 262V8L264 494V727L1442 1214Z" />
<glyph unicode="=" glyph-name="equal" horiz-adv-x="1706" d="M254 502H1452V272H254V502ZM254 950H1452V719H254V950Z" />
<glyph unicode="&gt;" glyph-name="greater" horiz-adv-x="1706" d="M264 1214L1442 727V494L264 8V262L1118 610L264 961V1214Z" />
<glyph unicode="?" glyph-name="question" horiz-adv-x="1262" d="M334 420Q334 429 333 447T332 473Q332 588 363 657T475 791Q519 825 606 881Q780 992 780 1079Q780 1153 712 1192T514 1231Q414 1231 313 1215T111 1165V1448Q228 1470 341 1480T565 1491Q874
1491 1033 1392T1192 1100Q1192 989 1140 908T963 745Q947 735 916 716Q694 578 694 436V420H334ZM322 0V313H705V0H322Z" />
<glyph unicode="@" glyph-name="at" horiz-adv-x="2048" d="M1161 262Q1105 180 1035 142T866 104Q703 104 619 191T535 449Q535 690 676 853T1026 1016Q1103 1016 1160 986T1255 893L1307 985H1513L1360 375Q1360 373 1359 369Q1356 351 1356 342Q1356 312 1372
298T1419 283Q1556 283 1659 426T1763 762Q1763 1001 1584 1152T1116 1303Q968 1303 842 1267T612 1157Q457 1047 373 883T289 526Q289 224 492 45T1036 -135Q1200 -135 1352 -88T1632 51L1729 -84Q1573 -201 1400 -259T1036 -317Q844 -317 682 -268T393 -123Q236
-1 159 158T82 520Q82 689 135 840T291 1118Q439 1301 650 1396T1118 1491Q1288 1491 1438 1445T1698 1313Q1834 1206 1901 1070T1968 764Q1968 597 1903 457T1712 217Q1643 161 1558 132T1382 102Q1276 102 1221 142T1161 262ZM1198 696Q1189 772 1148 812T1038
852Q935 852 857 731T778 444Q778 361 813 316T911 270Q995 270 1059 329T1147 487L1198 696Z" />
<glyph unicode="A" glyph-name="A" horiz-adv-x="1868" d="M662 584H1192L940 1151L662 584ZM-57 0L711 1475H1210L1933 0H1458L1327 299H524L387 0H-57Z" />
<glyph unicode="B" glyph-name="B" horiz-adv-x="1729" d="M573 621V287H858Q1062 287 1132 324T1202 457Q1202 548 1137 584T858 621H573ZM573 1192V881H827Q1005 881 1070 917T1135 1042Q1135 1126 1075 1159T827 1192H573ZM166 0V1475H913Q1097 1475 1193 1464T1356
1425Q1460 1386 1518 1298T1577 1092Q1577 964 1500 887T1255 772Q1439 761 1536 670T1634 416Q1634 316 1596 238T1483 106Q1403 49 1281 25T913 0H166Z" />
<glyph unicode="C" glyph-name="C" horiz-adv-x="1712" d="M1644 514Q1635 249 1452 112T922 -25Q515 -25 302 170T88 735Q88 1105 306 1299T942 1493Q1270 1493 1442 1368T1638 989H1217Q1200 1092 1124 1145T915 1198Q711 1198 613 1087T514 743Q514 509 608
393T893 276Q1045 276 1124 334T1221 514H1644Z" />
<glyph unicode="D" glyph-name="D" horiz-adv-x="1915" d="M848 1151H580V322H848Q1132 322 1260 419T1389 731Q1389 943 1255 1047T848 1151ZM166 0V1475H911Q1128 1475 1258 1450T1491 1366Q1651 1276 1737 1109T1823 721Q1823 508 1741 349T1503 102Q1406 47
1285 24T911 0H166Z" />
<glyph unicode="E" glyph-name="E" horiz-adv-x="1518" d="M166 0V1475H1421V1161H573V905H1380V602H573V317H1444V0H166Z" />
<glyph unicode="F" glyph-name="F" horiz-adv-x="1475" d="M166 0V1475H1415V1161H578V864H1370V553H578V0H166Z" />
<glyph unicode="G" glyph-name="G" horiz-adv-x="1849" d="M1331 303V547H961V823H1747V76Q1586 26 1407 1T1030 -25Q560 -25 324 163T88 725Q88 1095 321 1294T987 1493Q1353 1493 1542 1371T1747 1004H1296Q1292 1105 1207 1164T975 1223Q757 1223 640 1100T522
748Q522 505 646 383T1018 260Q1092 260 1170 271T1331 303Z" />
<glyph unicode="H" glyph-name="H" horiz-adv-x="1907" d="M166 1475H584V905H1323V1475H1741V0H1323V596H584V0H166V1475Z" />
<glyph unicode="I" glyph-name="I" horiz-adv-x="768" d="M172 0V1475H594V0H172Z" />
<glyph unicode="J" glyph-name="J" horiz-adv-x="1489" d="M469 537V528Q469 388 521 328T694 268Q820 268 869 340T918 633V1475H1337V600Q1337 282 1171 129T659 -25Q355 -25 201 112T47 520V537H469Z" />
<glyph unicode="K" glyph-name="K" horiz-adv-x="1636" d="M166 0V1475H584V844L1169 1475H1661L1028 821L1712 0H1169L584 750V0H166Z" />
<glyph unicode="L" glyph-name="L" horiz-adv-x="1382" d="M166 0V1475H584V322H1358V0H166Z" />
<glyph unicode="M" glyph-name="M" horiz-adv-x="2460" d="M162 0V1475H801L1255 371L1726 1475H2300V0H1946V1180L1452 0H1010L522 1180V0H162Z" />
<glyph unicode="N" glyph-name="N" horiz-adv-x="1913" d="M158 0V1475H705L1380 414V1475H1755V0H1206L532 1057V0H158Z" />
<glyph unicode="O" glyph-name="O" horiz-adv-x="1952" d="M518 723Q518 491 631 375T971 258Q1201 258 1316 372T1432 715Q1432 960 1313 1088T967 1217Q754 1217 636 1087T518 723ZM950 -27Q535 -27 312 172T88 741Q88 1099 325 1299T989 1499Q1411 1499 1637
1299T1864 727Q1864 360 1631 167T950 -27Z" />
<glyph unicode="P" glyph-name="P" horiz-adv-x="1597" d="M573 1184V811H827Q1002 811 1067 853T1133 1001Q1133 1103 1070 1143T827 1184H573ZM166 0V1475H928Q1094 1475 1187 1458T1348 1403Q1448 1346 1500 1243T1552 999Q1552 858 1499 756T1343 600Q1270
560 1172 543T854 526H821H573V0H166Z" />
<glyph unicode="Q" glyph-name="Q" horiz-adv-x="1987" d="M1518 0Q1414 0 1232 -13T973 -27Q541 -27 315 170T88 741Q88 1099 325 1299T989 1499Q1403 1499 1633 1301T1864 750Q1864 585 1796 460T1581 227Q1650 259 1743 274T1962 289H1987V0H1518ZM518 719Q518
485 631 368T969 250Q1200 250 1316 364T1432 709Q1432 957 1313 1087T967 1217Q754 1217 636 1086T518 719Z" />
<glyph unicode="R" glyph-name="R" horiz-adv-x="1688" d="M573 1190V846H834Q1019 846 1088 885T1157 1022Q1157 1116 1093 1153T834 1190H573ZM166 0V1475H971Q1148 1475 1240 1461T1401 1413Q1491 1369 1540 1289T1589 1106Q1589 953 1489 860T1186 733Q1338
731 1415 692T1522 563Q1537 517 1564 327T1634 0H1200Q1180 39 1164 151Q1162 165 1161 173L1133 369Q1115 489 1065 526T821 563H573V0H166Z" />
<glyph unicode="S" glyph-name="S" horiz-adv-x="1589" d="M100 492H518V477Q518 368 590 316T813 264Q947 264 1013 302T1079 418Q1079 530 773 585Q711 596 678 602Q376 660 254 758T131 1030Q131 1256 308 1375T821 1495Q1141 1495 1295 1388T1462 1051H1065V1055Q1065
1136 1001 1177T809 1219Q686 1219 620 1183T553 1081Q553 976 849 921Q901 911 930 905L947 902Q1273 839 1378 748Q1439 695 1471 619T1503 451Q1503 222 1319 99T791 -25Q445 -25 273 96T100 461V492Z" />
<glyph unicode="T" glyph-name="T" horiz-adv-x="1602" d="M592 0V1165H33V1475H1569V1165H1010V0H592Z" />
<glyph unicode="U" glyph-name="U" horiz-adv-x="1907" d="M162 1475H590V643Q590 463 678 375T946 287Q1135 287 1226 374T1317 643V1475H1745V641Q1745 295 1553 135T944 -25Q746 -25 594 15T348 131Q248 213 205 328T162 641V1475Z" />
<glyph unicode="V" glyph-name="V" horiz-adv-x="1716" d="M594 0L-16 1475H436L870 358L1319 1475H1733L1098 0H594Z" />
<glyph unicode="W" glyph-name="W" horiz-adv-x="2494" d="M424 0L2 1475H430L713 391L1053 1475H1522L1825 362L2114 1475H2499L2075 0H1548L1262 1055L938 0H424Z" />
<glyph unicode="X" glyph-name="X" horiz-adv-x="1743" d="M-61 0L614 776L-4 1475H518L901 1006L1280 1475H1757L1128 776L1798 0H1262L846 522L432 0H-61Z" />
<glyph unicode="Y" glyph-name="Y" horiz-adv-x="1548" d="M567 0V530L-98 1475H395L805 864L1196 1475H1651L985 524V0H567Z" />
<glyph unicode="Z" glyph-name="Z" horiz-adv-x="1636" d="M96 0V375L1028 1176H158V1475H1511V1096L592 307H1536V0H96Z" />
<glyph unicode="[" glyph-name="bracketleft" horiz-adv-x="829" d="M180 -299V1497H768V1290H510V-100H768V-299H180Z" />
<glyph unicode="\" glyph-name="backslash" horiz-adv-x="834" d="M-12 1497H227L889 -190H647L-12 1497Z" />
<glyph unicode="]" glyph-name="bracketright" horiz-adv-x="829" d="M649 -299H61V-100H322V1290H61V1497H649V-299Z" />
<glyph unicode="^" glyph-name="asciicircum" horiz-adv-x="2048" d="M879 1462H1167L1632 899H1368L1024 1241L678 899H414L879 1462Z" />
<glyph unicode="_" glyph-name="underscore" horiz-adv-x="1024" d="M0 -244H1024V-483H0V-244Z" />
<glyph unicode="`" glyph-name="grave" horiz-adv-x="1024" d="M719 1165H541L94 1450H451L719 1165Z" />
<glyph unicode="a" glyph-name="a" horiz-adv-x="1440" d="M926 459H895Q651 459 555 426T459 313Q459 256 508 228T655 199Q786 199 856 260T926 436V459ZM936 152Q872 66 749 21T457 -25Q262 -25 156 56T49 287Q49 380 90 454T209 575Q271 614 382 630T735 647H926Q926
653 927 662T928 676Q928 760 879 804T735 848Q628 848 576 819T514 723H115Q134 892 286 972T741 1053Q1032 1053 1169 957T1307 659V135Q1307 92 1311 60T1327 0H961Q948 28 942 61T936 133V152Z" />
<glyph unicode="b" glyph-name="b" horiz-adv-x="1587" d="M137 1475H530V881Q619 968 729 1011T971 1055Q1215 1055 1357 912T1499 522Q1499 264 1362 120T979 -25Q840 -25 726 30T530 193V160Q530 120 527 80T518 0H121Q129 64 133 122T137 233V1475ZM1096 543Q1096
682 1020 765T815 848Q674 848 600 767T526 528Q526 379 601 296T809 213Q945 213 1020 299T1096 543Z" />
<glyph unicode="c" glyph-name="c" horiz-adv-x="1434" d="M961 666Q948 750 892 792T735 834Q613 834 546 748T479 504Q479 362 544 287T733 211Q845 211 903 259T963 401H1368Q1357 186 1201 82T729 -23Q410 -23 241 111T72 498Q72 764 247 910T745 1057Q1023
1057 1178 957T1354 666H961Z" />
<glyph unicode="d" glyph-name="d" horiz-adv-x="1587" d="M772 848Q644 848 569 765T494 543Q494 385 568 299T778 213Q912 213 986 296T1061 528Q1061 685 987 766T772 848ZM1450 1475V233Q1450 180 1454 122T1466 0H1069Q1063 40 1060 80T1057 160V193Q976
85 863 30T610 -25Q364 -25 226 119T88 522Q88 768 230 911T616 1055Q748 1055 858 1012T1057 881V1475H1450Z" />
<glyph unicode="e" glyph-name="e" horiz-adv-x="1417" d="M1335 328Q1321 155 1166 65T723 -25Q410 -25 241 110T72 498Q72 764 247 910T745 1057Q1049 1057 1202 908T1356 461V426H465Q470 316 542 252T735 188Q828 188 885 225T950 328H1335ZM467 635H968Q965
732 899 787T721 842Q608 842 542 788T467 635Z" />
<glyph unicode="f" glyph-name="f" horiz-adv-x="946" d="M248 1169Q248 1337 357 1416T702 1495Q769 1495 829 1489T942 1468V1251Q934 1252 920 1252Q851 1255 821 1255Q713 1255 676 1227T639 1118V1028H942V784H639V0H248V784H12V1028H248V1169Z" />
<glyph unicode="g" glyph-name="g" horiz-adv-x="1597" d="M500 537Q500 414 576 340T780 266Q921 266 995 339T1069 551Q1069 683 995 756T784 829Q649 829 575 753T500 537ZM1075 874Q1075 919 1078 957T1087 1028H1472Q1465 972 1462 914T1458 795V270Q1458
72 1437 -23T1364 -186Q1279 -297 1125 -350T735 -403Q445 -403 300 -313T152 -41H540Q544 -110 596 -145T748 -180Q910 -180 987 -105T1065 127V213Q989 126 879 83T627 39Q389 39 243 178T96 539Q96 779 242 916T645 1053Q766 1053 874 1009T1075 874Z" />
<glyph unicode="h" glyph-name="h" horiz-adv-x="1542" d="M530 0H137V1475H530V864Q616 959 726 1006T973 1053Q1179 1053 1299 943T1419 643V0H1024V627Q1024 722 965 771T793 821Q664 821 597 745T530 522V0Z" />
<glyph unicode="i" glyph-name="i" horiz-adv-x="653" d="M115 1186V1475H539V1186H115ZM131 0V1028H524V0H131Z" />
<glyph unicode="j" glyph-name="j" horiz-adv-x="696" d="M172 143V1028H565V20Q565 -201 451 -302T88 -403Q33 -403 -8 -401T-86 -391V-131Q-72 -131 -48 -132T-12 -133Q43 -133 76 -125T131 -98Q154 -79 163 -37T172 143ZM158 1186V1475H580V1186H158Z" />
<glyph unicode="k" glyph-name="k" horiz-adv-x="1475" d="M131 0V1475H524V598L1012 1028H1481L977 584L1532 0H1024L524 549V0H131Z" />
<glyph unicode="l" glyph-name="l" horiz-adv-x="653" d="M131 0V1475H524V0H131Z" />
<glyph unicode="m" glyph-name="m" horiz-adv-x="2318" d="M137 0V786Q137 865 134 921T125 1028H512Q518 987 522 946T531 863Q616 957 723 1005T956 1053Q1098 1053 1191 999T1325 840Q1398 945 1504 999T1745 1053Q1963 1053 2079 941T2195 616V0H1804V627Q1804
720 1752 770T1606 821Q1480 821 1420 748T1360 522V0H973V627Q973 718 921 769T776 821Q648 821 586 748T524 522V0H137Z" />
<glyph unicode="n" glyph-name="n" horiz-adv-x="1542" d="M137 0V786Q137 865 134 921T125 1028H520Q525 988 527 947T530 864Q623 962 730 1007T973 1053Q1183 1053 1301 941T1419 629V0H1024V610Q1024 714 969 767T807 821Q667 821 599 748T530 522V0H137Z" />
<glyph unicode="o" glyph-name="o" horiz-adv-x="1540" d="M752 -25Q421 -25 247 114T72 516Q72 777 251 916T768 1055Q1108 1055 1287 915T1466 512Q1466 245 1287 110T752 -25ZM772 205Q903 205 979 290T1055 524Q1055 674 979 761T770 848Q634 848 560 764T485
526Q485 370 558 288T772 205Z" />
<glyph unicode="p" glyph-name="p" horiz-adv-x="1587" d="M137 -389V795Q137 848 133 906T121 1028H518Q524 988 527 948T530 868V836Q612 943 726 999T979 1055Q1224 1055 1361 910T1499 506Q1499 260 1357 117T971 -27Q839 -27 729 16T530 147V-389H137ZM815
180Q943 180 1019 263T1096 485Q1096 642 1021 728T809 815Q676 815 601 732T526 500Q526 343 600 262T815 180Z" />
<glyph unicode="q" glyph-name="q" horiz-adv-x="1587" d="M494 485Q494 346 569 263T772 180Q913 180 987 262T1061 502Q1061 650 987 732T778 815Q642 815 568 729T494 485ZM1450 -389H1057V147Q968 60 859 17T616 -27Q372 -27 230 116T88 506Q88 764 226 909T610
1055Q748 1055 861 999T1057 836V868Q1057 908 1060 948T1069 1028H1466Q1458 964 1454 906T1450 795V-389Z" />
<glyph unicode="r" glyph-name="r" horiz-adv-x="1010" d="M967 701Q936 706 906 708T844 711Q691 711 611 621T530 358V0H137V786Q137 865 134 921T125 1028H510Q514 993 516 955T518 872V825Q578 934 679 987T926 1040H967V701Z" />
<glyph unicode="s" glyph-name="s" horiz-adv-x="1294" d="M70 326H461Q461 260 510 224T651 188Q736 188 782 216T829 295Q829 377 615 404Q577 409 557 412Q295 446 204 514T113 727Q113 886 246 969T631 1053Q929 1053 1064 972T1200 715H815V719Q815 784 774
815T645 846Q571 846 532 824T492 762Q492 689 707 655Q753 647 778 643Q1051 598 1135 535T1219 340Q1219 154 1077 65T639 -25Q348 -25 215 57T70 326Z" />
<glyph unicode="t" glyph-name="t" horiz-adv-x="999" d="M623 1389V1028H946V784H623V383Q623 303 658 273T784 242Q811 242 847 244T946 252V2Q884 -11 821 -18T692 -25Q459 -25 350 54T240 301V784H4V1028H240V1247L449 1313Q488 1325 531 1344T623 1389Z" />
<glyph unicode="u" glyph-name="u" horiz-adv-x="1542" d="M1016 0Q1011 42 1009 83T1006 164Q916 71 804 23T563 -25Q347 -25 232 89T117 418V1028H512V432Q512 316 565 262T733 207Q868 207 937 283T1006 508V1028H1399V244Q1399 175 1409 24Q1411 7 1411 0H1016Z" />
<glyph unicode="v" glyph-name="v" horiz-adv-x="1389" d="M446 0L-37 1028H399L700 285L1004 1028H1423L934 0H446Z" />
<glyph unicode="w" glyph-name="w" horiz-adv-x="2224" d="M377 0L-35 1028H387L629 309L903 1028H1362L1632 309L1898 1028H2261L1827 0H1384L1104 725L838 0H377Z" />
<glyph unicode="x" glyph-name="x" horiz-adv-x="1360" d="M-39 0L461 555L29 1028H518L715 774L928 1028H1350L918 551L1397 0H903L657 322L387 0H-39Z" />
<glyph unicode="y" glyph-name="y" horiz-adv-x="1366" d="M256 -389L489 16L-33 1028H399L698 346L1018 1028H1395L666 -389H256Z" />
<glyph unicode="z" glyph-name="z" horiz-adv-x="1298" d="M92 0V293L725 791H143V1028H1182V768L535 252H1229V0H92Z" />
<glyph unicode="{" glyph-name="braceleft" horiz-adv-x="1024" d="M893 1477V1235Q886 1235 872 1236T852 1237Q754 1237 720 1202T686 1055V815Q686 675 640 615T475 530Q595 506 640 448T686 248V6Q686 -104 719 -139T850 -174Q857 -174 871 -173T893 -172V-414Q878
-414 851 -415T811 -416Q703 -416 632 -404T512 -367Q453 -335 430 -279T406 -86V170Q406 303 357 357T188 412Q184 412 171 411T152 410V651Q158 651 170 650T188 649Q306 649 356 704T406 893V1147Q406 1283 430 1340T512 1430Q560 1455 632 1467T813 1479Q825
1479 851 1478T893 1477Z" />
<glyph unicode="|" glyph-name="bar" horiz-adv-x="1024" d="M393 1565H633V-483H393V1565Z" />
<glyph unicode="}" glyph-name="braceright" horiz-adv-x="1024" d="M133 1477Q148 1477 174 1478T213 1479Q321 1479 393 1467T514 1430Q572 1398 596 1341T621 1147V893Q621 759 670 704T838 649Q844 649 856 650T874 651V410Q868 410 856 411T838 412Q719 412
670 357T621 170V-86Q621 -223 597 -280T514 -369Q469 -393 401 -404T223 -416Q209 -416 179 -415T133 -414V-172Q142 -172 156 -173T176 -174Q273 -174 306 -140T340 6V248Q340 388 386 447T551 530Q431 555 386 614T340 815V1055Q340 1166 307 1201T180 1237Q173
1237 158 1236T133 1235V1477Z" />
<glyph unicode="~" glyph-name="asciitilde" horiz-adv-x="1706" d="M1530 819V565Q1429 496 1336 462T1153 428Q1108 428 1064 435T981 457Q968 461 943 470Q688 559 561 559Q477 559 386 522T178 401V655Q290 728 385 763T565 799Q628 799 691 787T861 741Q877
736 912 724Q1071 668 1159 668Q1243 668 1332 704T1530 819Z" />
<glyph unicode="&#x80;" glyph-name="euro" horiz-adv-x="1554" d="M147 506H0L72 668H127V801H-33L39 963H147Q209 1225 392 1359T874 1493Q1180 1493 1336 1376T1520 1010H1096Q1094 1129 1033 1190T852 1251Q735 1251 663 1178T567 963H1016L942 801H557Q557
792 556 773T555 743Q555 737 556 711T559 668H907L836 506H567Q598 356 665 287T846 217Q969 217 1026 281T1092 496H1520Q1504 239 1341 107T874 -25Q570 -25 386 110T147 506Z" />
</font>
</defs>
</svg>
